<svg id="Слой_1" data-name="Слой 1" fill="#272727" xmlns="http://www.w3.org/2000/svg" viewBox="0 0 500 250"><defs><style>.cls-1{fill:#fff}</style></defs><path class="cls-1" d="M435 578V328h500v250zm125.17-236.28c-61.74-.21-111.9 49.57-112.39 111.55s49.59 112.59 112.05 112.89c61.85.3 112.2-49.9 112.4-112 .19-61.97-49.92-112.23-112.06-112.44zm134.38 62.54v106.22h28.14V404.26zm153.39 5.57c-7.72 0-14.53.2-21.33-.08-3.62-.15-5.2 1.14-6.41 4.52-11.1 30.82-22.39 61.56-33.6 92.33-.46 1.28-.72 2.64-1.15 4.24 9.86 0 19.19-.16 28.51.09 3.36.09 4.44-1.23 5.31-4.25 5.82-20.12 11.85-40.17 17.82-60.25 3.54-11.94 7.08-23.87 10.85-36.6zm14.43 100.69h34c-11.14-30.5-22.1-60.53-33.54-91.84-3.85 13.15-7.2 24.93-10.77 36.64-1.83 6-4.33 11.92-1 17.52-2 1.24-4.48 1.84-4.94 3.15-2.33 6.51-4.13 13.2-6.35 20.59 5.44 0 10.06.16 14.66-.06 2.9-.15 4.17 1 4.83 3.71.87 3.52 2.09 6.96 3.11 10.29zm-79.8.3c-1.29-2.18-2.15-3.74-3.1-5.24-7.84-12.39-15.57-24.85-23.64-37.08-2.12-3.2-1.68-5 .78-7.62 7.59-8 14.93-16.16 22.34-24.29a37.64 37.64 0 002.41-3.37c-10.63 0-20.46-.12-30.29.12-1.67 0-3.55 1.35-4.92 2.55-11.69 10.18-17.18 22.74-14.46 38.39.23 1.3-.14 2.7.09 4a15.29 15.29 0 001.46 5.16q7.38 12.48 15.1 24.74c.71 1.12 2.13 2.52 3.24 2.54 10.1.18 20.2.1 30.99.1z" transform="translate(-435 -328)"/><path d="M560.17 341.72c62.14.21 112.25 50.47 112.06 112.4-.2 62.14-50.55 112.34-112.4 112-62.46-.3-112.55-50.76-112.05-112.89.49-61.94 50.65-111.72 112.39-111.51zM544.53 502c3.51.74 4.92-1.8 6-5.15q14-42.36 28.2-84.68c1.86-5.58.35-7.35-5.48-7-3.37.2-4.85 2-5.86 5C558 438.61 548.48 467 539 495.35c-1.71 5.22-.6 6.65 5.53 6.65zm71.67-48.27c-6.43 7.76-12.48 15.26-18.77 22.55-2.72 3.14-2.32 5.22.75 7.83s5 2.2 7.39-.76q10.7-13.15 21.75-26c2.54-3 1.91-5.19-.35-7.83-7.14-8.33-14.24-16.7-21.18-25.2-2.55-3.13-4.76-3.49-7.89-.84-3.31 2.79-2.6 5.16-.17 8 6.13 7.19 12.11 14.52 18.47 22.23zm-113.42 0c6.51-7.87 12.69-15.48 19.05-22.94 2.84-3.33 1.56-5.57-1.22-7.94s-4.7-1.08-6.63 1.25c-7.13 8.56-14.27 17.11-21.52 25.57-2.39 2.79-2.3 5.16 0 7.91q10.77 12.76 21.36 25.7c2.33 2.84 4.54 3.4 7.54.8s3.25-4.85.52-7.93c-6.36-7.24-12.5-14.67-19.1-22.45zm191.77-49.47h28.14v106.22h-28.14zm153.39 5.57c-3.77 12.73-7.31 24.66-10.85 36.6-6 20.08-12 40.13-17.82 60.25-.87 3-1.95 4.34-5.31 4.25-9.32-.25-18.65-.09-28.51-.09.43-1.6.69-3 1.15-4.24 11.21-30.77 22.5-61.51 33.6-92.33 1.21-3.38 2.79-4.67 6.41-4.52 6.8.25 13.61.08 21.33.08zm14.43 100.69c-1-3.33-2.24-6.77-3.1-10.29-.66-2.7-1.93-3.86-4.83-3.71-4.6.22-9.22.06-14.66.06 2.22-7.39 4-14.08 6.35-20.59.46-1.31 2.9-1.91 4.94-3.15-3.33-5.6-.83-11.49 1-17.52 3.57-11.71 6.92-23.49 10.77-36.64 11.44 31.31 22.4 61.34 33.54 91.84zm-79.8.3c-10.79 0-20.89.08-31-.11-1.11 0-2.53-1.42-3.24-2.54q-7.7-12.27-15.1-24.74a15.29 15.29 0 01-1.46-5.16c-.23-1.29.14-2.69-.09-4-2.72-15.65 2.77-28.21 14.46-38.39 1.37-1.2 3.25-2.51 4.92-2.55 9.83-.24 19.66-.12 30.29-.12a37.64 37.64 0 01-2.41 3.37c-7.41 8.13-14.75 16.33-22.34 24.29-2.46 2.59-2.9 4.42-.78 7.62 8.07 12.23 15.8 24.69 23.64 37.08.96 1.51 1.82 3.07 3.11 5.25z" transform="translate(-435 -328)"/><path class="cls-1" d="M544.53 502c-6.13 0-7.24-1.41-5.5-6.63 9.45-28.39 19-56.74 28.4-85.14 1-3 2.49-4.85 5.86-5 5.83-.36 7.34 1.41 5.48 7q-14.09 42.35-28.2 84.68c-1.12 3.27-2.57 5.81-6.04 5.09zm71.67-48.29c-6.36-7.69-12.34-15-18.47-22.26-2.43-2.86-3.14-5.23.17-8 3.13-2.65 5.34-2.29 7.89.84 6.94 8.5 14 16.87 21.18 25.2 2.26 2.64 2.89 4.87.35 7.83q-11.07 12.85-21.75 26c-2.4 3-4.35 3.35-7.39.76s-3.47-4.69-.75-7.83c6.29-7.25 12.34-14.78 18.77-22.54zm-113.42-.01c6.6 7.78 12.74 15.21 19.13 22.42 2.73 3.08 2.5 5.3-.52 7.93s-5.21 2-7.54-.8q-10.61-12.92-21.36-25.7c-2.33-2.75-2.42-5.12 0-7.91 7.25-8.46 14.39-17 21.52-25.57 1.93-2.33 3.78-3.69 6.63-1.25s4.06 4.61 1.22 7.94c-6.39 7.46-12.57 15.07-19.08 22.94z" transform="translate(-435 -328)"/></svg>